<svg width="76" height="75" viewBox="0 0 76 75" fill="none" xmlns="http://www.w3.org/2000/svg">
<path d="M31.9756 9.70722L37.3505 0.103699L48.4813 19.4926L28.0906 54.8102C24.518 60.9982 17.9154 64.8102 10.7701 64.8102L0.0230666 64.8102L31.9756 9.70722Z" fill="url(#paint0_linear_5_52)"/>
<path d="M43.1066 10.2204L36.5143 13.8852L26.537 19.6751L47.0135 54.9744C50.5915 61.1425 57.1828 64.939 64.3135 64.939L75.2013 64.939L43.1066 10.2204Z" fill="#2C63B5"/>
<path d="M37.3505 0.103684L25.6639 20.6861L75.0268 64.6418L56.3631 32.896L46.7696 16.4999L37.3505 0.103684Z" fill="#62A1FF" fill-opacity="0.5"/>
<path d="M48.2677 19.1136L37.478 38.5235L46.9938 54.9578C50.5697 61.1336 57.1654 64.9362 64.3018 64.9362L75.2013 64.9362L48.2677 19.1136Z" fill="#00D1FF" fill-opacity="0.66"/>
<path d="M37.4909 38.4858C35.3618 37.1174 33.7232 36.2826 31.2456 35.8613C28.768 35.44 26.3643 35.6195 23.9197 36.2102C21.4751 36.8009 19.3266 37.4893 17.2914 39.001C15.2562 40.5128 13.1966 42.2082 11.8842 44.4083L10.3143 47.1991C11.3356 45.4871 17.4659 41.6364 18.1636 41.2686C18.8613 40.9007 20.2567 39.6987 24.0941 39.1754C26.3617 38.8662 27.7571 38.6522 30.0246 39.5243C31.7689 40.1952 33.6006 41.2502 35.2574 42.3151L37.4909 38.4858Z" fill="#003C97"/>
<defs>
<linearGradient id="paint0_linear_5_52" x1="22.3498" y1="52.4319" x2="-8.34945" y2="75.9796" gradientUnits="userSpaceOnUse">
<stop stop-color="#2C63B5"/>
<stop offset="1" stop-color="#4200FF" stop-opacity="0"/>
</linearGradient>
</defs>
</svg>
